<svg width="15" height="16" viewBox="0 0 15 16" fill="none" xmlns="http://www.w3.org/2000/svg">
<path d="M7.06774 0C7.33296 0 7.58731 0.105357 7.77485 0.292893C7.96239 0.48043 8.06774 0.734784 8.06774 1V6.268L12.6297 3.634C12.7435 3.5673 12.8694 3.52377 13 3.5059C13.1307 3.48804 13.2636 3.49619 13.3911 3.5299C13.5186 3.56361 13.6382 3.62221 13.7429 3.70231C13.8477 3.78242 13.9356 3.88246 14.0015 3.99667C14.0674 4.11088 14.1101 4.23701 14.1271 4.36779C14.1441 4.49857 14.1351 4.63142 14.1006 4.75869C14.066 4.88597 14.0066 5.00515 13.9258 5.10937C13.845 5.2136 13.7444 5.30082 13.6297 5.366L9.06774 8L13.6297 10.634C13.7444 10.6992 13.845 10.7864 13.9258 10.8906C14.0066 10.9949 14.066 11.114 14.1006 11.2413C14.1351 11.3686 14.1441 11.5014 14.1271 11.6322C14.1101 11.763 14.0674 11.8891 14.0015 12.0033C13.9356 12.1175 13.8477 12.2176 13.7429 12.2977C13.6382 12.3778 13.5186 12.4364 13.3911 12.4701C13.2636 12.5038 13.1307 12.512 13 12.4941C12.8694 12.4762 12.7435 12.4327 12.6297 12.366L8.06774 9.732V15C8.06774 15.2652 7.96239 15.5196 7.77485 15.7071C7.58731 15.8946 7.33296 16 7.06774 16C6.80253 16 6.54817 15.8946 6.36064 15.7071C6.1731 15.5196 6.06774 15.2652 6.06774 15V9.732L1.50574 12.366C1.39197 12.4327 1.26613 12.4762 1.13547 12.4941C1.00481 12.512 0.871898 12.5038 0.744398 12.4701C0.616899 12.4364 0.497327 12.3778 0.392565 12.2977C0.287804 12.2176 0.199922 12.1175 0.133981 12.0033C0.0680395 11.8891 0.0253403 11.763 0.00834174 11.6322C-0.00865687 11.5014 0.000380833 11.3686 0.0349346 11.2413C0.0694883 11.114 0.128876 10.9949 0.209677 10.8906C0.290479 10.7864 0.391099 10.6992 0.505745 10.634L5.06774 8L0.505745 5.366C0.277938 5.23245 0.112203 5.01421 0.0447069 4.75892C-0.0227892 4.50362 0.0134334 4.23199 0.14547 4.00331C0.277507 3.77462 0.494638 3.60744 0.74948 3.53825C1.00432 3.46906 1.27619 3.50348 1.50574 3.634L6.06774 6.268V1C6.06774 0.734784 6.1731 0.48043 6.36064 0.292893C6.54817 0.105357 6.80253 0 7.06774 0V0Z" fill="#EC6D8B"/>
</svg>
