<svg width="36" height="36" viewBox="0 0 36 36" fill="none" xmlns="http://www.w3.org/2000/svg">
<path d="M14.9866 20.9732C14.9866 22.5241 13.8616 23.0143 12.4795 23.0143H8.85536V18.7634H12.5518C14.0464 18.7714 14.9866 19.3902 14.9866 20.9732V20.9732ZM14.3679 14.3598C14.3679 12.9375 13.267 12.6 12.0455 12.6H8.86339V16.2H12.2946C13.508 16.2 14.3679 15.6696 14.3679 14.3598V14.3598ZM24.9991 16.2241C23.5286 16.2241 22.5482 17.1402 22.4518 18.6107H27.45C27.3134 17.1241 26.542 16.2241 24.9991 16.2241ZM36 3.85714V32.1429C36 34.2723 34.2723 36 32.1429 36H3.85714C1.72768 36 0 34.2723 0 32.1429V3.85714C0 1.72768 1.72768 0 3.85714 0H32.1429C34.2723 0 36 1.72768 36 3.85714ZM21.833 12.2946H28.0848V10.7759H21.833V12.2946ZM18.3777 21.158C18.3777 19.2214 17.4616 17.55 15.5652 17.0116C16.9473 16.3527 17.6705 15.5893 17.6705 14.0384C17.6705 10.9687 15.3804 10.2214 12.7366 10.2214H5.46429V25.65H12.9455C15.75 25.6339 18.3777 24.292 18.3777 21.158V21.158ZM30.5357 19.9687C30.5357 16.6661 28.5991 13.9098 25.1036 13.9098C21.6964 13.9098 19.3902 16.4652 19.3902 19.8241C19.3902 23.3036 21.5839 25.6902 25.1036 25.6902C27.7714 25.6902 29.4991 24.4929 30.3348 21.9295H27.6268C27.3295 22.8857 26.1321 23.3839 25.2 23.3839C23.4 23.3839 22.4598 22.3313 22.4598 20.5473H30.5116C30.5196 20.3625 30.5357 20.1616 30.5357 19.9687Z" fill="#5A38FD"/>
</svg>
