<svg width="17" height="19" viewBox="0 0 17 19" fill="none" xmlns="http://www.w3.org/2000/svg">
<path fill-rule="evenodd" clip-rule="evenodd" d="M12 5.5C12 7.433 10.433 9 8.5 9C6.567 9 5 7.433 5 5.5C5 3.567 6.567 2 8.5 2C10.433 2 12 3.567 12 5.5ZM11.0324 10.3836C12.7956 9.46744 14 7.62437 14 5.5C14 2.46243 11.5376 0 8.5 0C5.46243 0 3 2.46243 3 5.5C3 7.62437 4.20441 9.46744 5.96764 10.3836C2.51 11.4613 0 14.6875 0 18.5H2C2 14.9101 4.91015 12 8.5 12C12.0899 12 15 14.9101 15 18.5H17C17 14.6875 14.49 11.4613 11.0324 10.3836Z" fill="white"/>
</svg>
