<svg width="20" height="14" viewBox="0 0 20 14" fill="none" xmlns="http://www.w3.org/2000/svg">
<path fill-rule="evenodd" clip-rule="evenodd" d="M4 0C4.74028 0 5.38663 0.402199 5.73244 1H20V2.5H5.93699C5.90924 2.60783 5.87272 2.71213 5.82824 2.81212C5.51688 3.512 4.81543 4 4 4C3.06808 4 2.28503 3.36261 2.06301 2.5H0V1H2.26756C2.29089 0.959683 2.31558 0.920255 2.34157 0.881781C2.36375 0.848945 2.38688 0.816805 2.41093 0.785397C2.77643 0.307933 3.35225 0 4 0ZM17.9216 7.55648C17.927 7.53777 17.9321 7.51894 17.937 7.5H20V6H17.7324C17.3866 5.4022 16.7403 5 16 5C15.3096 5 14.701 5.34978 14.3416 5.88178C14.3397 5.8846 14.3378 5.88742 14.3359 5.89025C14.312 5.92604 14.2892 5.96264 14.2676 6H0V7.5H14.063C14.285 8.36261 15.0681 9 16 9C16.8975 9 17.6569 8.40888 17.9101 7.59475C17.914 7.58205 17.9179 7.56929 17.9216 7.55648ZM9 10C9.74028 10 10.3866 10.4022 10.7324 11H20V12.5H10.937C10.9361 12.5034 10.9353 12.5067 10.9344 12.5101C10.907 12.6143 10.8713 12.7153 10.8282 12.8121C10.5169 13.512 9.81543 14 9 14C8.06808 14 7.28503 13.3626 7.06301 12.5H0V11H7.26756C7.29089 10.9597 7.31558 10.9203 7.34157 10.8818C7.36375 10.8489 7.38688 10.8168 7.41093 10.7854C7.77643 10.3079 8.35225 10 9 10ZM4.51854 2.85523C4.36734 2.9471 4.18985 3 4 3C3.79572 3 3.60574 2.93874 3.44744 2.8336C3.44525 2.83215 3.44307 2.83069 3.44089 2.82922C3.17489 2.64951 3 2.34518 3 2C3 1.44772 3.44772 1 4 1C4.55228 1 5 1.44772 5 2C5 2.348 4.82224 2.65448 4.55256 2.8336C4.54138 2.84103 4.53003 2.84824 4.51854 2.85523ZM16.1022 7.99484C16.1058 7.99448 16.1093 7.99409 16.1127 7.9937C16.2739 7.97559 16.4237 7.91913 16.5526 7.8336C16.8222 7.65449 17 7.348 17 7C17 6.48223 16.6065 6.05637 16.1022 6.00516C16.0686 6.00175 16.0345 6 16 6C15.8964 6 15.7966 6.01574 15.7026 6.04497C15.2956 6.17158 15 6.55128 15 7C15 7.34518 15.1749 7.64951 15.4409 7.82922C15.4431 7.83069 15.4452 7.83215 15.4474 7.8336M15.4474 7.83361C15.6057 7.93875 15.7957 8 16 8C16.0345 8 16.0686 7.99825 16.1022 7.99484M9.55911 12.8292C9.82511 12.6495 10 12.3452 10 12C10 11.4708 9.58889 11.0376 9.06861 11.0023C9.04594 11.0008 9.02306 11 9 11C8.94391 11 8.8889 11.0046 8.83532 11.0135C8.83101 11.0142 8.8267 11.015 8.82241 11.0157C8.81029 11.0179 8.79825 11.0203 8.78629 11.0229C8.33669 11.1208 8 11.5211 8 12C8 12.348 8.17776 12.6545 8.44744 12.8336C8.45862 12.841 8.46997 12.8482 8.48146 12.8552C8.63266 12.9471 8.81015 13 9 13C9.20428 13 9.39425 12.9387 9.55255 12.8336C9.55256 12.8336 9.55256 12.8336 9.55256 12.8336" fill="white"/>
</svg>
