<svg width="36" height="36" viewBox="0 0 36 36" fill="none" xmlns="http://www.w3.org/2000/svg">
<path fill-rule="evenodd" clip-rule="evenodd" d="M4.45188e-07 3.00764C4.45188e-07 2.20997 0.316875 1.44496 0.880917 0.88092C1.44496 0.316879 2.20996 4.0096e-06 3.00764 4.0096e-06H32.9891C33.3844 -0.00064162 33.7759 0.0766888 34.1413 0.227568C34.5067 0.378447 34.8387 0.599911 35.1184 0.879281C35.3981 1.15865 35.6199 1.49044 35.7712 1.85566C35.9225 2.22087 36.0002 2.61234 36 3.00764V32.9891C36.0004 33.3845 35.9229 33.7761 35.7718 34.1414C35.6208 34.5068 35.3992 34.8389 35.1197 35.1185C34.8402 35.3982 34.5083 35.62 34.143 35.7712C33.7776 35.9225 33.3861 36.0002 32.9907 36H3.00764C2.61253 36 2.2213 35.9222 1.85629 35.7709C1.49128 35.6197 1.15964 35.398 0.880338 35.1185C0.601032 34.839 0.379525 34.5073 0.228473 34.1422C0.0774217 33.7771 -0.00021452 33.3858 4.45188e-07 32.9907V3.00764ZM14.2495 13.7258H19.1242V16.1738C19.8278 14.7665 21.6278 13.5 24.3327 13.5C29.5184 13.5 30.7473 16.3031 30.7473 21.4462V30.9731H25.4995V22.6178C25.4995 19.6887 24.7958 18.036 23.0089 18.036C20.5298 18.036 19.4989 19.818 19.4989 22.6178V30.9731H14.2495V13.7258ZM5.24945 30.7489H10.4989V13.5H5.24945V30.7473V30.7489ZM11.25 7.87418C11.2599 8.32365 11.1799 8.77056 11.0148 9.1887C10.8496 9.60684 10.6026 9.98777 10.2882 10.3091C9.97382 10.6305 9.59842 10.8859 9.18402 11.0602C8.76962 11.2345 8.32457 11.3243 7.875 11.3243C7.42543 11.3243 6.98038 11.2345 6.56598 11.0602C6.15158 10.8859 5.77618 10.6305 5.4618 10.3091C5.14743 9.98777 4.90041 9.60684 4.73524 9.1887C4.57008 8.77056 4.4901 8.32365 4.5 7.87418C4.51943 6.99195 4.88354 6.15239 5.51436 5.53531C6.14518 4.91823 6.99255 4.57269 7.875 4.57269C8.75745 4.57269 9.60482 4.91823 10.2356 5.53531C10.8665 6.15239 11.2306 6.99195 11.25 7.87418V7.87418Z" fill="#5A38FD"/>
</svg>
