<svg width="16" height="17" viewBox="0 0 16 17" fill="none" xmlns="http://www.w3.org/2000/svg">
<path fill-rule="evenodd" clip-rule="evenodd" d="M12.6598 9.78303C11.0147 11.4281 8.34737 11.4281 6.70226 9.78303C5.05715 8.13789 5.05715 5.4706 6.70226 3.82546C8.34737 2.18032 11.0147 2.18032 12.6598 3.82546C14.3049 5.4706 14.3049 8.13789 12.6598 9.78303ZM6.01935 11.9553C8.48712 13.714 11.9352 13.4864 14.1492 11.2724C16.617 8.8047 16.617 4.80376 14.1492 2.33607C11.6815 -0.131634 7.6806 -0.131634 5.2129 2.33607C2.99885 4.55002 2.77123 7.99811 4.52993 10.4659L-6.10352e-05 14.9959L1.48936 16.4853L6.01935 11.9553Z" fill="black"/>
</svg>
