<svg width="20" height="20" viewBox="0 0 20 20" fill="none" xmlns="http://www.w3.org/2000/svg">
<path d="M10 0C7.34784 0 4.8043 1.05357 2.92893 2.92893C1.05357 4.8043 0 7.34784 0 10C0 12.6522 1.05357 15.1957 2.92893 17.0711C4.8043 18.9464 7.34784 20 10 20C12.6522 20 15.1957 18.9464 17.0711 17.0711C18.9464 15.1957 20 12.6522 20 10C20 7.34784 18.9464 4.8043 17.0711 2.92893C15.1957 1.05357 12.6522 0 10 0V0ZM18.3333 7.2C18.1828 7.69274 17.9325 8.14924 17.598 8.5411C17.2635 8.93296 16.8519 9.25179 16.3889 9.47778C16.1422 8.55167 15.6864 7.69448 15.0565 6.97214C14.4266 6.2498 13.6395 5.68155 12.7556 5.31111C12.8994 4.81811 13.2096 4.39015 13.6333 4.1C13.1556 3.78889 12.5222 3.63333 12.1444 4.17778C11.5556 4.94444 12.1444 5.96667 12.3778 6.4V6.55556C11.7609 6.18136 11.2785 5.62118 11 4.95556C9.92639 4.92108 8.86441 5.18657 7.93333 5.72222C7.83668 5.09489 7.89778 4.45336 8.11111 3.85556C8.51234 3.89386 8.91684 3.8328 9.28889 3.67778C9.66094 3.52276 9.98912 3.27853 10.2444 2.96667C10.7556 2.38889 10.1 1.65556 9.58889 1.21111H9.98889C11.5015 1.20091 12.9909 1.58378 14.3111 2.32222C15.0573 2.87372 15.671 3.58486 16.1073 4.40374C16.5437 5.22263 16.7917 6.1286 16.8333 7.05556C17.1 7.05556 17.6111 6.44444 17.8444 6.03333C18.0356 6.41 18.1989 6.8 18.3333 7.2ZM10 18.7111C7.72222 16.4 10.2778 14.5444 8.88889 12.8889C7.86667 11.9444 6.34444 12.6 5.43333 11.5222C5.27953 10.7187 5.34602 9.8886 5.62575 9.11983C5.90548 8.35106 6.38802 7.67232 7.02222 7.15556C7.6 6.66667 11.4667 6.04444 13.0444 7.4C13.9673 8.19482 14.6165 9.25998 14.9 10.4444C15.4099 10.483 15.9199 10.3709 16.3667 10.1222C16.8222 13.4333 12.8667 17.6111 10 18.7111ZM5.72222 2.32222C6.14687 2.16032 6.61335 2.14452 7.04798 2.27733C7.4826 2.41013 7.86059 2.68396 8.12222 3.05556C7.65556 3.47778 7.07778 3.75556 6.45556 3.85556C6.47853 3.52839 6.54967 3.2064 6.66667 2.9L5.72222 2.32222Z" fill="black"/>
</svg>
